Land_normalized_Motion_pl06
version=1
nRows=25
nColumns=43
inDegrees=yes
endheader
time		pelvis_tilt		pelvis_list		pelvis_rotation		pelvis_tx		pelvis_ty		pelvis_tz		hip_flexion_r		hip_adduction_r		hip_rotation_r		knee_angle_r		ankle_angle_r		subtalar_angle_r		mtp_angle_r		hip_flexion_l		hip_adduction_l		hip_rotation_l		knee_angle_l		ankle_angle_l		subtalar_angle_l		mtp_angle_l		lumbar_extension		lumbar_bending		lumbar_rotation		neck_flexion		neck_lateral_bending		neck_rotation		arm_flex_r		arm_add_r		arm_rot_r		elbow_flex_r		pro_sup_r		wrist_flex_r		wrist_dev_r		hand_finger_flex_r		arm_flex_l		arm_add_l		arm_rot_l		elbow_flex_l		pro_sup_l		wrist_flex_l		wrist_dev_l		hand_finger_flex_l		
0.780000		2.642877		6.069281		86.031378		0.009779		1.021828		0.624523		26.616293		-2.192689		-11.390203		-27.707872		-17.911742		2.128210		-0.362635		30.943816		-8.731704		-5.658484		-33.289560		-28.357079		3.349207		15.456550		-34.170393		4.459794		6.876539		-16.326201		-0.483308		-5.471250		-48.127063		-14.585899		-33.822238		73.337199		103.581554		-1.811981		-21.294677		-9.614236		-53.940297		-12.422157		-19.247370		52.753195		121.941327		-33.190666		-12.944535		-11.466807		
0.783157		2.607914		6.230233		86.012265		0.009290		1.008857		0.619776		27.521579		-2.227846		-10.636996		-29.548768		-18.067356		2.211228		-0.608174		31.744562		-8.589528		-4.888658		-35.151508		-28.565171		3.236760		15.246865		-34.602994		4.468582		6.857651		-15.602693		-0.728079		-5.518030		-47.220638		-14.355615		-33.884286		73.157629		103.292615		-1.832844		-21.410977		-9.648660		-53.045166		-12.132768		-19.413600		52.546933		121.672645		-33.462430		-12.825586		-11.589754		
0.786313		2.508518		6.142144		86.009743		0.008801		0.995207		0.614833		28.763233		-2.311651		-9.978039		-31.488017		-18.242963		2.189550		-1.006020		32.884529		-8.406146		-4.279047		-37.108644		-28.881449		2.951906		14.899079		-34.671076		4.434738		6.803239		-15.252690		-0.836119		-5.576464		-46.313589		-14.161170		-33.899752		72.906625		102.860958		-1.740175		-21.617889		-9.657241		-52.215862		-12.012243		-19.333080		52.319330		121.501739		-33.751121		-12.914146		-11.728135		
0.789470		2.491449		6.456893		86.003928		0.008261		0.982217		0.610132		29.510172		-2.292452		-9.188934		-33.234726		-18.542399		2.388065		-1.113283		33.535083		-8.231085		-3.583191		-38.883252		-29.216605		2.865148		14.844258		-35.335425		4.454951		6.777558		-14.208271		-1.100244		-5.615963		-45.385839		-14.014999		-33.930675		72.891069		102.617576		-1.690083		-21.759317		-9.680941		-51.302857		-11.761224		-19.489375		52.322636		121.389108		-33.990263		-12.847293		-11.832283		
0.792626		2.288830		6.061158		85.955783		0.007791		0.967529		0.605510		31.257914		-2.366911		-8.280656		-35.289934		-18.668260		2.516087		-1.173602		35.041088		-7.943725		-3.109368		-40.697219		-29.743171		2.334353		14.980080		-35.136730		4.308716		6.711699		-13.501898		-1.183066		-5.632234		-44.470222		-13.862310		-33.961141		72.760709		101.825152		-1.271923		-22.150613		-9.671762		-50.461091		-11.641606		-19.477868		52.201788		121.462492		-34.392046		-13.071186		-11.984353		
0.795783		2.281577		6.224315		85.914589		0.007425		0.954030		0.600659		32.179092		-2.240018		-7.480300		-37.022220		-18.618493		2.710251		-0.087007		35.850111		-7.809109		-2.593529		-42.346166		-30.004281		2.240257		16.468951		-35.590458		4.309377		6.683332		-12.692870		-1.402585		-5.639673		-43.498025		-13.871969		-33.821293		72.778944		101.424188		-1.077044		-22.245156		-9.772295		-49.594379		-11.462727		-19.612370		52.348660		121.528470		-34.518467		-13.066223		-11.924403		
0.798939		2.248207		6.190605		85.853290		0.007145		0.939965		0.595829		33.379030		-2.083008		-6.655810		-38.931409		-18.063956		2.896348		2.292449		36.880345		-7.686262		-2.186548		-44.009654		-29.943245		2.065351		19.587591		-35.825166		4.270822		6.681325		-11.861043		-1.518502		-5.584236		-42.539854		-13.871128		-33.682745		72.810384		100.800883		-0.717257		-22.424740		-9.931885		-48.751534		-11.330337		-19.752679		52.543390		121.768963		-34.682554		-13.186236		-11.765217		
0.802096		2.322171		6.456588		85.712645		0.007096		0.926522		0.590942		34.158518		-1.824324		-6.009510		-40.849405		-17.134618		3.289176		8.486505		37.486688		-7.764320		-1.853752		-45.596074		-29.416726		2.583100		26.298084		-36.433816		4.259315		6.781673		-10.911211		-1.674403		-5.531101		-41.531143		-13.892469		-33.655366		72.908852		100.354087		0.010561		-22.704507		-9.965437		-47.859241		-11.188508		-19.946230		52.787318		122.063735		-34.921889		-13.459060		-11.337266		
0.805253		2.460015		6.829309		85.675740		0.006889		0.913353		0.585972		34.749196		-1.510734		-5.427338		-42.961515		-14.648790		3.727868		10.711657		37.970117		-7.783138		-1.407182		-47.457839		-26.817163		3.123405		28.518732		-37.135401		4.360082		6.891102		-10.124167		-1.681026		-5.431929		-40.523449		-13.821193		-33.663234		73.108794		100.219939		0.147580		-22.916647		-10.013604		-46.968599		-11.225626		-19.856722		53.160608		122.199818		-35.094012		-13.685463		-11.252927		
0.808409		2.606519		7.040204		85.552380		0.006907		0.899939		0.581286		35.505188		-1.082764		-4.866934		-45.294290		-11.084256		3.999210		12.263053		38.662528		-7.862851		-0.848704		-49.600438		-23.182606		4.274903		29.942652		-37.715048		4.416605		7.043416		-9.182614		-1.797144		-5.369325		-39.454743		-13.894011		-33.563239		73.296440		100.046804		0.489276		-23.121465		-9.961695		-46.038053		-11.238801		-19.818671		53.575612		122.314785		-35.267512		-13.943386		-11.151044		
0.811566		2.773043		7.196633		85.401392		0.006910		0.886540		0.576791		36.320528		-0.622836		-4.449140		-47.829459		-7.011855		3.931513		13.605503		39.425237		-7.956011		-0.261885		-51.995045		-18.837870		5.387391		31.133771		-38.260638		4.481388		7.225197		-8.240731		-1.906752		-5.301410		-38.365236		-14.019432		-33.440017		73.562492		99.921401		0.827520		-23.303730		-9.926934		-45.076929		-11.265599		-19.743531		54.032286		122.452746		-35.474800		-14.205821		-11.009456		
0.814722		2.955055		7.249865		85.227324		0.006886		0.873121		0.572500		37.252208		-0.152962		-4.192158		-50.505298		-2.624661		3.673640		14.329435		40.339764		-8.091972		0.314203		-54.648133		-13.944177		6.690028		31.624227		-38.723121		4.556550		7.444431		-7.262118		-2.022405		-5.229257		-37.217135		-14.212758		-33.302298		73.813771		99.885850		1.166109		-23.435128		-9.896790		-44.058826		-11.327186		-19.588631		54.498257		122.625522		-35.747010		-14.453804		-10.840307		
0.817879		3.158443		7.111761		85.033924		0.006826		0.859494		0.568493		38.482323		0.313618		-4.136298		-53.361657		1.742353		3.137018		13.361648		41.540190		-8.259709		0.884624		-57.575740		-8.756528		8.028537		30.004631		-38.999725		4.660998		7.710051		-6.317567		-2.135846		-5.155383		-36.056157		-14.441626		-33.192255		74.125399		99.986872		1.532087		-23.530606		-9.921403		-42.990501		-11.420943		-19.337163		54.980625		122.867739		-36.217365		-14.640977		-10.493299		
0.821035		3.309464		6.887605		84.867531		0.006484		0.845831		0.564856		39.995951		0.685141		-4.180219		-56.423146		5.892530		2.264568		9.065933		42.927949		-8.277402		1.469199		-60.666336		-3.570834		8.793621		24.158379		-39.211006		4.756673		7.982088		-5.394007		-2.251501		-5.097972		-34.931765		-14.657477		-33.191937		74.586583		100.232492		1.886542		-23.631927		-10.123674		-41.845689		-11.508357		-19.036673		55.542383		123.167969		-37.006231		-14.705054		-9.717430		
0.824192		3.302168		6.645922		84.644089		0.006305		0.832389		0.561425		41.670879		0.929346		-4.136451		-59.466713		9.085959		1.386366		7.611072		44.347654		-8.296331		1.743036		-63.648229		0.486229		9.611424		22.511240		-39.407189		4.644542		8.119525		-4.443659		-2.293229		-4.943325		-33.633355		-15.016862		-32.943816		74.972629		100.418280		2.074576		-23.582211		-10.045742		-40.692765		-11.644300		-18.728408		56.072310		123.468940		-37.474800		-14.848931		-9.740000		
0.827348		3.300767		6.750170		84.471135		0.005833		0.820072		0.558342		43.035352		0.999324		-4.348874		-62.404787		11.446167		0.276698		6.927718		45.418555		-8.208252		1.895904		-66.490164		3.604695		9.398378		21.757799		-40.077343		4.550104		8.239801		-3.240702		-2.414893		-4.912886		-32.278894		-15.352576		-32.791317		75.498325		100.513956		2.139382		-23.636588		-10.018875		-39.427022		-11.766651		-18.487310		56.734911		123.688066		-37.748825		-14.998058		-9.761623		
0.830505		3.169403		6.185735		84.365450		0.005406		0.806372		0.555607		45.453598		1.036573		-4.385419		-65.574770		13.482477		-0.646762		2.122283		47.411682		-7.994869		2.080943		-69.400540		6.686724		9.307787		16.011103		-39.954624		4.397629		8.361717		-2.299219		-2.420099		-4.877075		-30.968072		-15.610535		-32.697061		75.940419		100.788307		2.134810		-23.727728		-9.992332		-38.150345		-11.990323		-18.174423		57.452233		124.396345		-38.394838		-14.702055		-9.414022		
0.833662		2.957484		6.146074		84.137201		0.005241		0.794210		0.553065		47.316433		1.079392		-4.260950		-68.529661		14.484608		-2.016728		2.094927		48.741441		-7.916477		1.880521		-71.936539		8.427596		9.259411		16.082975		-40.482036		4.024664		8.364361		-1.098428		-2.395755		-4.716360		-29.432388		-15.976072		-32.412242		76.483926		100.885077		2.144731		-23.546425		-9.977852		-36.788999		-12.130804		-18.020660		58.142930		124.549594		-38.828755		-14.815155		-9.566694		
0.836818		2.635947		5.750489		83.892150		0.005308		0.781423		0.550810		49.729607		1.171246		-3.936183		-71.545670		14.879543		-3.422713		1.969311		50.539607		-7.800683		1.641829		-74.410535		9.802785		9.024564		16.011731		-40.602067		3.534027		8.370212		0.016817		-2.255594		-4.538409		-27.879015		-16.242421		-32.167148		77.006617		100.986053		2.067230		-23.393744		-9.987511		-35.406278		-12.329705		-17.879378		58.864636		124.766826		-39.373393		-14.757386		-9.718507		
0.839975		2.537802		5.870997		83.736513		0.005142		0.770117		0.548488		51.383161		1.257021		-3.862144		-74.312551		15.499748		-4.330664		2.044953		51.731499		-7.749375		1.527620		-76.734167		11.033546		8.593070		16.107254		-41.362307		3.287928		8.390155		1.262786		-2.347375		-4.562055		-26.257989		-16.638440		-31.892406		77.569460		101.037708		2.048783		-23.421991		-9.988268		-33.972249		-12.609707		-17.631944		59.675524		124.983049		-39.598520		-14.857959		-9.773273		
0.843131		2.051504		5.368806		83.438307		0.005408		0.757581		0.546427		53.965508		1.402268		-3.277580		-77.242060		15.275885		-5.851127		2.157999		53.615616		-7.615103		1.085912		-79.017164		11.937295		8.055461		16.133228		-41.351143		2.592257		8.394155		2.324417		-2.141231		-4.380684		-24.643207		-16.861106		-31.639922		78.035731		101.056307		1.883897		-23.304804		-10.020396		-32.449956		-12.864727		-17.518034		60.423384		125.217296		-40.181991		-14.612390		-9.898612		
0.846288		1.790710		5.309703		83.259376		0.005405		0.746346		0.544262		55.825167		1.522937		-2.970345		-79.967460		15.386806		-6.847227		2.374050		54.958275		-7.507274		0.828571		-81.195114		12.998840		7.458706		16.213328		-41.889637		2.166707		8.409269		3.510051		-2.137412		-4.346391		-22.984021		-17.187715		-31.391826		78.553746		100.994227		1.808497		-23.331789		-10.017025		-30.846683		-13.148284		-17.347219		61.212812		125.397999		-40.525874		-14.527459		-9.927315		
0.849444		1.561167		5.313605		83.108961		0.005385		0.735496		0.542017		57.568240		1.641701		-2.692613		-82.654461		15.442115		-7.733537		2.575028		56.177619		-7.406969		0.592967		-83.339572		14.043592		6.857171		16.286976		-42.501735		1.794646		8.368788		4.656354		-2.155727		-4.330084		-21.246320		-17.496933		-31.127122		79.077388		100.901991		1.759157		-23.366517		-10.002517		-29.218430		-13.482377		-17.101124		61.953064		125.569425		-40.787663		-14.488216		-9.923016		
0.852601		1.087952		5.123647		82.973451		0.005295		0.724360		0.539762		59.614344		1.671351		-2.182199		-85.387435		15.089981		-8.842841		2.846197		57.593586		-7.159793		0.151670		-85.446450		14.872250		6.081330		16.223554		-42.852252		1.210839		8.254284		5.709088		-2.051719		-4.235270		-19.576777		-17.748538		-30.907882		79.587318		100.617769		1.707031		-23.381168		-9.922201		-27.505381		-13.804947		-16.887332		62.666839		125.628197		-41.244104		-14.271535		-9.847044		
0.855758		0.865755		5.247579		82.957005		0.004977		0.714324		0.537351		61.127383		1.673863		-1.925710		-87.947227		15.005660		-9.391389		3.093425		58.616336		-6.954381		-0.054293		-87.517977		15.829697		5.472964		16.190183		-43.606703		0.931912		8.156751		6.843073		-2.097955		-4.245781		-17.845273		-18.097322		-30.665729		80.124587		100.387225		1.716950		-23.460068		-9.801450		-25.711703		-14.125343		-16.623135		63.344353		125.666134		-41.487207		-14.206907		-9.693209		
